<?xml version="1.0" encoding="utf-8"?>
<!-- Svg Vector Icons : http://www.onlinewebfonts.com/icon -->
<!DOCTYPE svg PUBLIC "-//W3C//DTD SVG 1.1//EN" "http://www.w3.org/Graphics/SVG/1.1/DTD/svg11.dtd">
<svg version="1.1" xmlns="http://www.w3.org/2000/svg" xmlns:xlink="http://www.w3.org/1999/xlink" x="0px" y="0px" viewBox="0 0 1000 1000" enable-background="new 0 0 1000 1000" xml:space="preserve">
<metadata> Svg Vector Icons : http://www.onlinewebfonts.com/icon </metadata>
<g><path d="M745,477.7H522.3V255c0-12.4-10-22.3-22.3-22.3s-22.3,10-22.3,22.3v222.7H255c-12.3,0-22.3,10-22.3,22.3c0,12.3,10,22.3,22.3,22.3h222.7V745c0,12.3,10,22.3,22.3,22.3c12.3,0,22.3-9.9,22.3-22.3V522.3H745c12.3,0,22.3-10,22.3-22.3C767.3,487.7,757.3,477.7,745,477.7 M500,10C229.4,10,10,229.4,10,500c0,270.6,219.4,490,490,490c270.6,0,490-219.4,490-490C990,229.4,770.6,10,500,10 M500,945.5C254,945.5,54.5,746,54.5,500C54.5,254,254,54.5,500,54.5C746,54.5,945.5,254,945.5,500C945.5,746,746,945.5,500,945.5"/></g>
</svg>